<?xml version="1.0" encoding="utf-8"?>
<svg viewBox="0 0 500 500" xmlns="http://www.w3.org/2000/svg" xmlns:bx="https://boxy-svg.com">
  <defs>
    <bx:grid x="0" y="0" width="50" height="50"/>
  </defs>
  <path style="fill: rgb(216, 216, 216); stroke: rgb(0, 0, 0);" d="M 206.757 256.757 L 306.757 356.757" transform="matrix(0, 1, -1, 0, 606.756985, 93.242992)" bx:origin="-0.5 1"/>
  <path style="fill: rgb(216, 216, 216); stroke: rgb(0, 0, 0);" d="M 300 150 L 400 250" transform="matrix(-0.173648, 0.984808, -0.984808, -0.173648, 539.613985, 47.210109)" bx:origin="-0.5 1"/>
  <path style="fill: rgb(216, 216, 216); stroke: rgb(0, 0, 0);" d="M 300 150 L 400 250" transform="matrix(-0.34202, 0.939693, -0.939693, -0.34202, 570.42817, 100.581835)" bx:origin="-0.5 1"/>
  <path style="fill: rgb(216, 216, 216); stroke: rgb(0, 0, 0);" d="M 300 150 L 400 250" transform="matrix(-0.5, 0.866026, -0.866026, -0.5, 591.506325, 158.493553)" bx:origin="-0.5 1"/>
  <path style="fill: rgb(216, 216, 216); stroke: rgb(0, 0, 0);" d="M 300 150 L 400 250" transform="matrix(-0.642787, 0.766045, -0.766045, -0.642787, 602.208004, 219.185681)" bx:origin="-0.5 1"/>
  <path style="fill: rgb(216, 216, 216); stroke: rgb(0, 0, 0);" d="M 300 150 L 400 250" transform="matrix(-0.766044, 0.642788, -0.642788, -0.766044, 602.20804, 280.813904)" bx:origin="-0.5 1"/>
  <path style="fill: rgb(216, 216, 216); stroke: rgb(0, 0, 0);" d="M 300 150 L 400 250" transform="matrix(-0.866025, 0.500001, -0.500001, -0.866025, 591.506406, 341.506146)" bx:origin="-0.5 1"/>
  <path style="fill: rgb(216, 216, 216); stroke: rgb(0, 0, 0);" d="M 300 150 L 400 250" transform="matrix(-0.939692, 0.342021, -0.342021, -0.939692, 570.428349, 399.41778)" bx:origin="-0.5 1"/>
  <path style="fill: rgb(216, 216, 216); stroke: rgb(0, 0, 0);" d="M 300 150 L 400 250" transform="matrix(-0.984808, 0.173649, -0.173649, -0.984808, 539.61419, 452.789598)" bx:origin="-0.5 1"/>
  <path style="fill: rgb(216, 216, 216); stroke: rgb(0, 0, 0);" d="M 300 150 L 400 250" transform="matrix(-1, 0.000001, -0.000001, -1, 500.000194, 499.999806)" bx:origin="-0.5 1"/>
  <path style="fill: rgb(216, 216, 216); stroke: rgb(0, 0, 0);" d="M 300 150 L 400 250" transform="matrix(-0.984808, -0.173647, 0.173647, -0.984808, 452.790178, 539.613784)" bx:origin="-0.5 1"/>
  <path style="fill: rgb(216, 216, 216); stroke: rgb(0, 0, 0);" d="M 300 150 L 400 250" transform="matrix(-0.939693, -0.342019, 0.342019, -0.939693, 399.418506, 570.428011)" bx:origin="-0.5 1"/>
  <path style="fill: rgb(216, 216, 216); stroke: rgb(0, 0, 0);" d="M 300 150 L 400 250" transform="matrix(-0.866026, -0.499999, 0.499999, -0.866026, 341.506769, 591.506239)" bx:origin="-0.5 1"/>
  <path style="fill: rgb(216, 216, 216); stroke: rgb(0, 0, 0);" d="M 300 150 L 400 250" transform="matrix(-0.766045, -0.642787, 0.642787, -0.766045, 280.814601, 602.207979)" bx:origin="-0.5 1"/>
  <path style="fill: rgb(216, 216, 216); stroke: rgb(0, 0, 0);" d="M 300 150 L 400 250" transform="matrix(-0.642788, -0.766044, 0.766044, -0.642788, 219.186096, 602.20804)" bx:origin="-0.5 1"/>
  <path style="fill: rgb(216, 216, 216); stroke: rgb(0, 0, 0);" d="M 300 150 L 400 250" transform="matrix(-0.500001, -0.866025, 0.866025, -0.500001, 158.493854, 591.506406)" bx:origin="-0.5 1"/>
  <path style="fill: rgb(216, 216, 216); stroke: rgb(0, 0, 0);" d="M 300 150 L 400 250" transform="matrix(-0.342021, -0.939692, 0.939692, -0.342021, 100.58222, 570.428349)" bx:origin="-0.5 1"/>
  <path style="fill: rgb(216, 216, 216); stroke: rgb(0, 0, 0);" d="M 300 150 L 400 250" transform="matrix(-0.173649, -0.984808, 0.984808, -0.173649, 47.210402, 539.61419)" bx:origin="-0.5 1"/>
  <path style="fill: rgb(216, 216, 216); stroke: rgb(0, 0, 0);" d="M 300 150 L 400 250" transform="matrix(-0.000001, -1, 1, -0.000001, 0.000194, 500.000194)" bx:origin="-0.5 1"/>
  <path style="fill: rgb(216, 216, 216); stroke: rgb(0, 0, 0);" d="M 300 150 L 400 250" transform="matrix(0.173647, -0.984808, 0.984808, 0.173647, -39.613784, 452.790178)" bx:origin="-0.5 1"/>
  <path style="fill: rgb(216, 216, 216); stroke: rgb(0, 0, 0);" d="M 300 150 L 400 250" transform="matrix(0.342019, -0.939693, 0.939693, 0.342019, -70.428011, 399.418506)" bx:origin="-0.5 1"/>
  <path style="fill: rgb(216, 216, 216); stroke: rgb(0, 0, 0);" d="M 300 150 L 400 250" transform="matrix(0.499999, -0.866026, 0.866026, 0.499999, -91.506239, 341.506769)" bx:origin="-0.5 1"/>
  <path style="fill: rgb(216, 216, 216); stroke: rgb(0, 0, 0);" d="M 300 150 L 400 250" transform="matrix(0.642787, -0.766045, 0.766045, 0.642787, -102.207979, 280.814601)" bx:origin="-0.5 1"/>
  <path style="fill: rgb(216, 216, 216); stroke: rgb(0, 0, 0);" d="M 300 150 L 400 250" transform="matrix(0.766044, -0.642788, 0.642788, 0.766044, -102.20804, 219.186096)" bx:origin="-0.5 1"/>
  <path style="fill: rgb(216, 216, 216); stroke: rgb(0, 0, 0);" d="M 300 150 L 400 250" transform="matrix(0.866025, -0.500001, 0.500001, 0.866025, -91.506406, 158.493854)" bx:origin="-0.5 1"/>
  <path style="fill: rgb(216, 216, 216); stroke: rgb(0, 0, 0);" d="M 300 150 L 400 250" transform="matrix(0.939692, -0.342021, 0.342021, 0.939692, -70.428349, 100.58222)" bx:origin="-0.5 1"/>
  <path style="fill: rgb(216, 216, 216); stroke: rgb(0, 0, 0);" d="M 300 150 L 400 250" transform="matrix(0.984808, -0.173649, 0.173649, 0.984808, -39.61419, 47.210402)" bx:origin="-0.5 1"/>
  <path style="fill: rgb(216, 216, 216); stroke: rgb(0, 0, 0);" d="M 300 150 L 400 250" transform="matrix(1, -0.000001, 0.000001, 1, -0.000194, 0.000194)" bx:origin="-0.5 1"/>
  <path style="fill: rgb(216, 216, 216); stroke: rgb(0, 0, 0);" d="M 300 150 L 400 250" transform="matrix(0.984808, 0.173647, -0.173647, 0.984808, 47.209822, -39.613784)" bx:origin="-0.5 1"/>
  <path style="fill: rgb(216, 216, 216); stroke: rgb(0, 0, 0);" d="M 300 150 L 400 250" transform="matrix(0.939693, 0.342019, -0.342019, 0.939693, 100.581494, -70.428011)" bx:origin="-0.5 1"/>
  <path style="fill: rgb(216, 216, 216); stroke: rgb(0, 0, 0);" d="M 300 150 L 400 250" transform="matrix(0.866026, 0.499999, -0.499999, 0.866026, 158.493231, -91.506239)" bx:origin="-0.5 1"/>
  <path style="fill: rgb(216, 216, 216); stroke: rgb(0, 0, 0);" d="M 300 150 L 400 250" transform="matrix(0.766045, 0.642787, -0.642787, 0.766045, 219.185399, -102.207979)" bx:origin="-0.5 1"/>
  <path style="fill: rgb(216, 216, 216); stroke: rgb(0, 0, 0);" d="M 300 150 L 400 250" transform="matrix(0.642788, 0.766044, -0.766044, 0.642788, 280.813904, -102.20804)" bx:origin="-0.5 1"/>
  <path style="fill: rgb(216, 216, 216); stroke: rgb(0, 0, 0);" d="M 300 150 L 400 250" transform="matrix(0.500001, 0.866025, -0.866025, 0.500001, 341.506146, -91.506406)" bx:origin="-0.5 1"/>
  <path style="fill: rgb(216, 216, 216); stroke: rgb(0, 0, 0);" d="M 300 150 L 400 250" transform="matrix(0.342021, 0.939692, -0.939692, 0.342021, 399.41778, -70.428349)" bx:origin="-0.5 1"/>
  <path style="fill: rgb(216, 216, 216); stroke: rgb(0, 0, 0);" d="M 300 150 L 400 250" transform="matrix(0.173649, 0.984808, -0.984808, 0.173649, 452.789598, -39.61419)" bx:origin="-0.5 1"/>
  <text style="fill: rgb(51, 51, 51); font-family: &quot;Noto Sans Mono&quot;; font-size: 38px; font-weight: 700; white-space: pre;" x="181.082" y="238.649">RAHXDA</text>
  <text style="fill: rgb(51, 51, 51); font-family: &quot;Noto Sans Mono&quot;; font-size: 38px; font-weight: 700; white-space: pre;" x="167.274" y="281.858">systems</text>
</svg>